<svg width="293" height="113" viewBox="0 0 293 113" fill="none" xmlns="http://www.w3.org/2000/svg">
<path d="M55.9482 15.4528L44.8037 26.5556C45.0081 27.3 45.2692 28.0951 45.4991 28.8634L55.42 18.9807C57.6777 16.2447 60.7512 14.7965 61.6328 14.315C72.6302 7.88735 70.6142 0.763788 70.6142 0.763788C70.6142 0.763788 69.0408 2.25709 68.2563 2.5452C66.954 3.02276 65.3754 3.26994 64.0679 3.73439C62.0534 4.44995 60.0797 5.22952 58.5956 6.88342C56.8931 8.78107 55.5098 13.922 55.7349 14.1857C58.2463 11.6793 60.7097 9.11615 63.8593 7.40427C60.4137 10.2563 55.9918 15.4084 55.9482 15.4528Z" fill="black"/>
<path d="M83.8853 90.0775C82.3301 90.2783 80.619 90.3921 79.0619 90.3927H78.9609C76.3812 90.3927 73.9438 89.8348 71.6035 88.8986V101.747C71.8654 101.762 72.1052 101.82 72.3718 101.826H72.3726H72.9968C78.2335 101.819 81.8535 100.138 84.1792 97.7141C86.435 95.3604 87.4591 92.2888 87.5266 89.3103L87.4707 89.3037C86.4896 89.642 85.282 89.8933 83.8853 90.0775Z" fill="black"/>
<path d="M55.3107 76.2903C51.7999 72.6351 48.3037 68.7416 44.6427 65.2C38.464 59.2203 31.7957 54.3253 23.8443 53.3205L21.2783 52.9917L36.3334 37.9944C35.934 37.3584 35.5561 36.7538 35.1759 36.1461L19.1915 52.0692V13.84L19.2329 13.6823C19.7785 11.5957 20.3906 9.95046 21.144 8.56999L21.1671 8.5267L21.2041 8.47186L21.4316 8.13205L21.4507 8.10109L21.4533 8.10266C21.7249 7.63454 22.0432 7.24856 22.3696 6.85968L22.3683 6.85812L22.4373 6.75919L22.6221 6.45323L22.7228 6.35011C23.9125 5.12183 25.3373 4.29475 27.1544 3.6566H0C1.90973 4.32545 3.42927 5.22889 4.61898 6.58102C6.05954 8.21523 7.05612 10.4666 7.92204 13.671L7.96559 13.8347V91.7245L7.92072 91.8856C7.05481 95.053 6.05665 97.3028 4.61767 98.9378C3.4395 100.277 1.93623 101.176 0.0477541 101.826H27.2906C25.8262 101.342 24.595 100.717 23.5948 99.8478L23.3528 99.7504L23.1878 99.6027C22.5722 99.0511 21.9784 98.3143 21.493 97.4434L21.489 97.4461L21.4234 97.3461L21.1807 97.0448L21.1256 96.9428C20.3846 95.5696 19.7764 93.8845 19.235 91.8775L19.1915 91.7166V54.7136L20.5604 54.8243C25.4205 55.2208 29.3565 58.0728 32.8878 62.198C38.5315 68.7952 43.1961 78.5841 49.0733 86.789C50.9953 89.471 53.0622 91.9457 55.3107 94.1165V76.2903Z" fill="black"/>
<path d="M78.7849 14.8304C79.7408 15.2321 80.5581 15.6986 81.1152 16.362C81.8297 17.2145 82.1861 18.3861 82.1787 19.8193C82.1779 21.2187 81.8977 22.8739 81.2902 24.983L81.2488 25.1239L59.2273 64.9044L55.2302 57.9207L55.2903 57.8837L55.2295 57.9178C45.4247 40.4437 40.2998 23.2118 39.7606 12.8773C38.7176 12.7524 37.6738 12.6816 36.7677 12.6818C34.4164 12.6834 32.5129 13.0411 31.1828 13.8655L31.1739 13.8718C29.9244 14.6349 29.1498 15.9308 29.1375 17.7167V17.7277L29.1382 17.7388L29.1395 17.8028C29.1395 19.9741 30.1582 22.8398 32.3725 26.7193L32.3833 26.7387C37.4221 35.3522 55.9405 63.9632 57.6409 66.5908L57.8442 66.9055V102.895L57.7999 103.059C56.9332 106.227 55.9353 108.476 54.4966 110.112C53.3174 111.452 51.8107 112.352 49.9227 113H76.9906C75.1013 112.352 73.5973 111.451 72.4165 110.11C70.9793 108.477 69.9785 106.227 69.1147 103.059L69.0699 102.896V68.9191L93.9184 24.913L93.9976 24.8193C98.8808 18.9308 102.455 16.3003 107.449 14.8304H78.7849Z" fill="black"/>
<path d="M147.661 52.0207L134.869 36.3566V52.0207H127.817V16.8642H134.869V32.629L147.661 16.8642H156.174L141.667 34.291L156.577 52.0207H147.661Z" fill="black"/>
<path d="M174.307 22.5553V31.369H186.144V36.9607H174.307V46.2789H187.654V52.0207H167.255V16.8135H187.654V22.5553H174.307Z" fill="black"/>
<path d="M231.676 16.864L218.782 52.0206H210.219L197.324 16.864H204.879L214.551 44.8185L224.17 16.864H231.676Z" fill="black"/>
<path d="M249.004 52.0207H241.952V16.8642H249.004V52.0207Z" fill="black"/>
<path d="M292.067 52.0207H285.017L269.05 27.8948V52.0207H261.998V16.8135H269.05L285.017 40.9898V16.8135H292.067V52.0207Z" fill="black"/>
<path d="M158.693 63.6433L146.806 86.5598V98.7998H139.754V86.5598L127.817 63.6433H135.775L143.331 79.7107L150.835 63.6433H158.693Z" fill="black"/>
<path d="M175.869 69.3345V78.1482H187.706V83.7399H175.869V93.0582H189.217V98.7999H168.817V63.5928H189.217V69.3345H175.869Z" fill="black"/>
</svg>
