<svg width="608" height="635" viewBox="0 0 608 635" fill="none" xmlns="http://www.w3.org/2000/svg">
<path d="M316.296 83.0423L253.292 145.811C254.447 150.019 255.923 154.514 257.223 158.857L313.31 102.987C326.073 87.5193 343.449 79.3323 348.433 76.6102C410.605 40.2721 399.208 3.05176e-05 399.208 3.05176e-05C399.208 3.05176e-05 390.313 8.44221 385.878 10.071C378.515 12.7709 369.591 14.1682 362.199 16.7939C350.811 20.8392 339.652 25.2465 331.262 34.5965C321.638 45.3247 313.817 74.388 315.09 75.8788C329.288 61.7091 343.214 47.219 361.02 37.5411C341.541 53.6645 316.542 82.7916 316.296 83.0423Z" fill="#F1F1F1"/>
<path d="M312.692 426.979C292.843 406.314 273.078 384.303 252.381 364.282C217.451 330.476 179.753 302.802 134.801 297.122L120.294 295.264L205.406 210.478C203.148 206.882 201.012 203.465 198.862 200.029L108.496 290.048V73.9244L108.731 73.0328C111.815 61.2366 115.276 51.9355 119.535 44.1312L119.665 43.8865L119.874 43.5764L121.16 41.6553L121.269 41.4803L121.284 41.4892C122.819 38.8428 124.618 36.6606 126.464 34.4622L126.456 34.4534L126.846 33.894L127.891 32.1644L128.46 31.5814C135.186 24.6375 143.241 19.9617 153.514 16.354H0C10.7964 20.1353 19.3869 25.2427 26.1128 32.8868C34.2568 42.1256 39.8908 54.8535 44.7862 72.9691L45.0324 73.8947V514.234L44.7787 515.145C39.8834 533.051 34.2405 545.77 26.1053 555.013C19.4448 562.583 10.9462 567.667 0.269971 571.343H154.284C146.005 568.606 139.045 565.069 133.39 560.158L132.022 559.607L131.089 558.772C127.609 555.654 124.252 551.489 121.508 546.565L121.485 546.58L121.114 546.015L119.742 544.312L119.431 543.735C115.242 535.972 111.803 526.445 108.743 515.099L108.496 514.189V304.998L116.235 305.624C143.711 307.865 165.963 323.989 185.927 347.31C217.832 384.606 244.203 439.947 277.429 486.332C288.295 501.494 299.98 515.484 312.692 527.757V426.979Z" fill="#F1F1F1"/>
<path d="M445.399 79.5233C450.804 81.7945 455.424 84.432 458.574 88.1821C462.613 93.0018 464.628 99.6253 464.586 107.728C464.582 115.639 462.997 124.996 459.563 136.92L459.329 137.717L334.834 362.61L312.237 323.129L312.576 322.92L312.232 323.113C256.802 224.325 227.83 126.907 224.781 68.4822C218.885 67.7761 212.983 67.3755 207.861 67.3771C194.568 67.386 183.807 69.4078 176.288 74.0688L176.237 74.1044C169.173 78.4182 164.794 85.7448 164.725 95.8411V95.9033L164.729 95.9657L164.736 96.3276C164.736 108.603 170.495 124.803 183.014 146.736L183.075 146.846C211.561 195.541 316.252 357.289 325.865 372.144L327.015 373.923V577.385L326.764 578.314C321.864 596.22 316.223 608.938 308.089 618.183C301.422 625.763 292.905 630.848 282.231 634.512H435.256C424.575 630.847 416.072 625.757 409.397 618.174C401.272 608.942 395.614 596.222 390.731 578.31L390.477 577.39V385.307L530.955 136.524L531.403 135.994C559.009 102.705 579.218 87.8335 607.449 79.5233H445.399Z" fill="#F1F1F1"/>
</svg>
