<svg width="55" height="55" viewBox="0 0 55 55" fill="none" xmlns="http://www.w3.org/2000/svg">
<rect width="55" height="55" rx="2" fill="black"/>
<path d="M35.9771 17.2395H19.0229C15.6966 17.2395 13 19.936 13 23.2624V31.7377C13 35.0641 15.6966 37.7606 19.0229 37.7606H35.9771C39.3034 37.7606 42 35.0641 42 31.7377V23.2624C42 19.936 39.3034 17.2395 35.9771 17.2395ZM31.9038 27.9124L23.9738 31.6945C23.7625 31.7953 23.5184 31.6412 23.5184 31.4072V23.6065C23.5184 23.3691 23.7689 23.2152 23.9807 23.3225L31.9107 27.3411C32.1464 27.4605 32.1423 27.7987 31.9038 27.9124Z" fill="white"/>
</svg>
