<svg width="35" height="35" viewBox="0 0 35 35" fill="none" xmlns="http://www.w3.org/2000/svg">
<mask id="mask0_302_249" style="mask-type:alpha" maskUnits="userSpaceOnUse" x="0" y="0" width="35" height="35">
<rect width="35" height="35" fill="#D9D9D9"/>
</mask>
<g mask="url(#mask0_302_249)">
<path d="M21.8749 29.1667C18.618 29.1667 15.8593 28.0365 13.5989 25.7761C11.3385 23.5157 10.2083 20.757 10.2083 17.5C10.2083 14.2674 11.3385 11.5148 13.5989 9.24223C15.8593 6.96966 18.618 5.83337 21.8749 5.83337C25.1076 5.83337 27.8602 6.96966 30.1327 9.24223C32.4053 11.5148 33.5416 14.2674 33.5416 17.5C33.5416 20.757 32.4053 23.5157 30.1327 25.7761C27.8602 28.0365 25.1076 29.1667 21.8749 29.1667ZM21.8749 26.25C24.3055 26.25 26.3714 25.3993 28.0728 23.698C29.7742 21.9966 30.6249 19.9306 30.6249 17.5C30.6249 15.0695 29.7742 13.0035 28.0728 11.3021C26.3714 9.60074 24.3055 8.75004 21.8749 8.75004C19.4444 8.75004 17.3784 9.60074 15.677 11.3021C13.9756 13.0035 13.1249 15.0695 13.1249 17.5C13.1249 19.9306 13.9756 21.9966 15.677 23.698C17.3784 25.3993 19.4444 26.25 21.8749 26.25ZM25.1926 22.9323L27.2708 20.8542L23.3333 16.9167V11.6667H20.4166V18.1198L25.1926 22.9323ZM2.91659 13.125V10.2084H8.74992V13.125H2.91659ZM1.45825 18.9584V16.0417H8.74992V18.9584H1.45825ZM2.91659 24.7917V21.875H8.74992V24.7917H2.91659Z" fill="#D5B76E"/>
</g>
</svg>
