<svg width="35" height="35" viewBox="0 0 35 35" fill="none" xmlns="http://www.w3.org/2000/svg">
<mask id="mask0_302_261" style="mask-type:alpha" maskUnits="userSpaceOnUse" x="0" y="0" width="35" height="35">
<rect width="35" height="35" fill="#D9D9D9"/>
</mask>
<g mask="url(#mask0_302_261)">
<path d="M7.87516 29.1667L5.8335 27.125L19.8335 13.125H16.0418V16.0417H13.1252V10.2084H21.62C22.0088 10.2084 22.3856 10.2813 22.7502 10.4271C23.1147 10.573 23.4307 10.7796 23.6981 11.0469L28.0731 15.3855C28.7293 16.0417 29.5314 16.5521 30.4793 16.9167C31.4272 17.2813 32.4481 17.4757 33.5418 17.5V20.4167C32.0349 20.4167 30.6677 20.1858 29.4403 19.724C28.2128 19.2622 27.1252 18.5695 26.1772 17.6459L24.7189 16.1146L21.5106 19.323L24.7918 22.6042L15.2397 28.1094L13.7814 25.5938L20.0522 21.9844L17.5731 19.5052L7.87516 29.1667ZM4.37516 18.9584V16.0417H11.6668V18.9584H4.37516ZM1.4585 14.5834V11.6667H8.75016V14.5834H1.4585ZM28.4012 11.6667C27.5991 11.6667 26.9064 11.3811 26.3231 10.8099C25.7397 10.2388 25.4481 9.55212 25.4481 8.75004C25.4481 7.94796 25.7397 7.26133 26.3231 6.69014C26.9064 6.11896 27.5991 5.83337 28.4012 5.83337C29.2033 5.83337 29.896 6.11896 30.4793 6.69014C31.0627 7.26133 31.3543 7.94796 31.3543 8.75004C31.3543 9.55212 31.0627 10.2388 30.4793 10.8099C29.896 11.3811 29.2033 11.6667 28.4012 11.6667ZM4.37516 10.2084V7.29171H11.6668V10.2084H4.37516Z" fill="#D5B76E"/>
</g>
</svg>
